<svg width="21" height="21" viewBox="0 0 21 21" fill="none" xmlns="http://www.w3.org/2000/svg">
<path d="M5.08333 1.59375C5.98958 1.05208 6.97917 0.635417 8.03125 0.375C8.2049 0.892239 8.53663 1.34187 8.97959 1.66042C9.42256 1.97897 9.95439 2.15034 10.5 2.15034C11.0456 2.15034 11.5774 1.97897 12.0204 1.66042C12.4634 1.34187 12.7951 0.892239 12.9688 0.375C14.0208 0.635417 15.0104 1.05208 15.9062 1.59375C15.6582 2.08342 15.5711 2.63897 15.6576 3.18104C15.7441 3.72312 15.9997 4.22401 16.3878 4.61216C16.776 5.00032 17.2769 5.25589 17.819 5.34238C18.361 5.42887 18.9166 5.34185 19.4062 5.09375C19.9479 5.98958 20.3646 6.96875 20.625 8.03125C20.1078 8.2049 19.6581 8.53663 19.3396 8.97959C19.021 9.42256 18.8497 9.95439 18.8497 10.5C18.8497 11.0456 19.021 11.5774 19.3396 12.0204C19.6581 12.4634 20.1078 12.7951 20.625 12.9688C20.3646 14.0208 19.9479 15.0104 19.4062 15.9062C18.9166 15.6582 18.361 15.5711 17.819 15.6576C17.2769 15.7441 16.776 15.9997 16.3878 16.3878C15.9997 16.776 15.7441 17.2769 15.6576 17.819C15.5711 18.361 15.6582 18.9166 15.9062 19.4062C15.0104 19.9479 14.0312 20.3646 12.9688 20.625C12.7951 20.1078 12.4634 19.6581 12.0204 19.3396C11.5774 19.021 11.0456 18.8497 10.5 18.8497C9.95439 18.8497 9.42256 19.021 8.97959 19.3396C8.53663 19.6581 8.2049 20.1078 8.03125 20.625C6.97917 20.3646 5.98958 19.9479 5.09375 19.4062C5.34185 18.9166 5.42887 18.361 5.34238 17.819C5.25589 17.2769 5.00032 16.776 4.61216 16.3878C4.22401 15.9997 3.72312 15.7441 3.18104 15.6576C2.63897 15.5711 2.08342 15.6582 1.59375 15.9062C1.03865 14.9957 0.627553 14.0048 0.375 12.9688C0.892239 12.7951 1.34187 12.4634 1.66042 12.0204C1.97897 11.5774 2.15034 11.0456 2.15034 10.5C2.15034 9.95439 1.97897 9.42256 1.66042 8.97959C1.34187 8.53663 0.892239 8.2049 0.375 8.03125C0.635417 6.97917 1.05208 5.98958 1.59375 5.09375C2.08342 5.34185 2.63897 5.42887 3.18104 5.34238C3.72312 5.25589 4.22401 5.00032 4.61216 4.61216C5.00032 4.22401 5.25589 3.72312 5.34238 3.18104C5.42887 2.63897 5.34185 2.08342 5.09375 1.59375H5.08333ZM10.5 14.6667C11.6051 14.6667 12.6649 14.2277 13.4463 13.4463C14.2277 12.6649 14.6667 11.6051 14.6667 10.5C14.6667 9.39493 14.2277 8.33512 13.4463 7.55372C12.6649 6.77232 11.6051 6.33333 10.5 6.33333C9.39493 6.33333 8.33512 6.77232 7.55372 7.55372C6.77232 8.33512 6.33333 9.39493 6.33333 10.5C6.33333 11.6051 6.77232 12.6649 7.55372 13.4463C8.33512 14.2277 9.39493 14.6667 10.5 14.6667Z" fill="#186FAF"/>
<path d="M10.4998 12.5834C11.6504 12.5834 12.5832 11.6506 12.5832 10.5C12.5832 9.34943 11.6504 8.41669 10.4998 8.41669C9.34924 8.41669 8.4165 9.34943 8.4165 10.5C8.4165 11.6506 9.34924 12.5834 10.4998 12.5834Z" fill="#186FAF"/>
</svg>
