<svg width="14" height="14" viewBox="0 0 14 14" fill="none" xmlns="http://www.w3.org/2000/svg">
<path d="M6.75 0C3.024 0 0 3.024 0 6.75C0 10.476 3.024 13.5 6.75 13.5C10.476 13.5 13.5 10.476 13.5 6.75C13.5 3.024 10.476 0 6.75 0ZM7.425 11.475H6.075V10.125H7.425V11.475ZM8.82225 6.24375L8.21475 6.86475C7.72875 7.3575 7.425 7.7625 7.425 8.775H6.075V8.4375C6.075 7.695 6.37875 7.02 6.86475 6.52725L7.70175 5.67675C7.9515 5.43375 8.1 5.09625 8.1 4.725C8.1 3.9825 7.4925 3.375 6.75 3.375C6.0075 3.375 5.4 3.9825 5.4 4.725H4.05C4.05 3.23325 5.25825 2.025 6.75 2.025C8.24175 2.025 9.45 3.23325 9.45 4.725C9.45 5.319 9.207 5.859 8.82225 6.24375Z" fill="#627D98"/>
</svg>
