<svg width="10" height="15" viewBox="0 0 10 15" fill="none" xmlns="http://www.w3.org/2000/svg">
<path fill-rule="evenodd" clip-rule="evenodd" d="M0 14.213L0 1.62037C0 1.41164 0.131696 1.21145 0.366117 1.06385C0.600537 0.916252 0.918479 0.833333 1.25 0.833333C1.58152 0.833333 1.89946 0.916252 2.13388 1.06385C2.3683 1.21145 2.5 1.41164 2.5 1.62037L2.5 14.213C2.5 14.4217 2.3683 14.6219 2.13388 14.7695C1.89946 14.9171 1.58152 15 1.25 15C0.918479 15 0.600537 14.9171 0.366117 14.7695C0.131696 14.6219 0 14.4217 0 14.213ZM7.5 14.213L7.5 1.62037C7.5 1.41164 7.6317 1.21145 7.86612 1.06385C8.10054 0.916252 8.41848 0.833333 8.75 0.833333C9.08152 0.833333 9.39946 0.916252 9.63388 1.06385C9.8683 1.21145 10 1.41164 10 1.62037V14.213C10 14.4217 9.8683 14.6219 9.63388 14.7695C9.39946 14.9171 9.08152 15 8.75 15C8.41848 15 8.10054 14.9171 7.86612 14.7695C7.6317 14.6219 7.5 14.4217 7.5 14.213Z" fill="#829AB1"/>
</svg>
