<svg width="22" height="22" viewBox="0 0 22 22" fill="none" xmlns="http://www.w3.org/2000/svg">
<rect width="22" height="22" rx="3" fill="#4098D7"/>
<path d="M8 14.5026C8.00045 14.5902 8.0206 14.6761 8.05842 14.7518C8.09625 14.8274 8.15043 14.8902 8.21556 14.9337C8.28068 14.9773 8.35446 15.0001 8.42953 15C8.5046 14.9999 8.57832 14.9767 8.64333 14.933L13.79 11.4303C13.854 11.386 13.907 11.323 13.9438 11.2476C13.9806 11.1722 14 11.0868 14 11C14 10.9132 13.9806 10.8278 13.9438 10.7524C13.907 10.677 13.854 10.614 13.79 10.5697L8.64333 7.06704C8.57832 7.02325 8.5046 7.00013 8.42953 7C8.35446 6.99987 8.28068 7.02272 8.21556 7.06628C8.15043 7.10985 8.09625 7.17259 8.05842 7.24823C8.0206 7.32388 8.00045 7.40979 8 7.49737V14.5026Z" fill="white"/>
</svg>
