<svg width="10" height="14" viewBox="0 0 10 14" fill="none" xmlns="http://www.w3.org/2000/svg">
<path d="M-3.11429e-07 12.5044C0.000752234 12.6503 0.0343284 12.7935 0.0973733 12.9196C0.160418 13.0457 0.250724 13.1502 0.359262 13.2228C0.467801 13.2954 0.590772 13.3335 0.715884 13.3333C0.840996 13.3331 0.963867 13.2946 1.07222 13.2216L9.64995 7.38385C9.75662 7.31001 9.84498 7.20506 9.90635 7.07931C9.96773 6.95357 10 6.81135 10 6.66665C10 6.52194 9.96773 6.37973 9.90635 6.25398C9.84498 6.12823 9.75662 6.02328 9.64995 5.94944L1.07222 0.111717C0.963867 0.0387313 0.840996 0.000202148 0.715884 -1.96363e-05C0.590772 -0.00024142 0.467801 0.0378528 0.359262 0.110454C0.250724 0.183056 0.160418 0.287623 0.0973733 0.413703C0.0343284 0.539783 0.000752234 0.68296 -3.11429e-07 0.828924L-3.11429e-07 12.5044Z" fill="#829AB1"/>
</svg>
