<svg width="22" height="22" viewBox="0 0 22 22" fill="none" xmlns="http://www.w3.org/2000/svg">
<rect width="22" height="22" rx="3" fill="#334E68"/>
<path fill-rule="evenodd" clip-rule="evenodd" d="M7 14.5556L7 7.44444C7 7.32657 7.10536 7.21352 7.29289 7.13017C7.48043 7.04682 7.73478 7 8 7C8.26522 7 8.51957 7.04682 8.70711 7.13017C8.89464 7.21352 9 7.32657 9 7.44444V14.5556C9 14.6734 8.89464 14.7865 8.70711 14.8698C8.51957 14.9532 8.26522 15 8 15C7.73478 15 7.48043 14.9532 7.29289 14.8698C7.10536 14.7865 7 14.6734 7 14.5556ZM13 14.5556V7.44444C13 7.32657 13.1054 7.21352 13.2929 7.13017C13.4804 7.04682 13.7348 7 14 7C14.2652 7 14.5196 7.04682 14.7071 7.13017C14.8946 7.21352 15 7.32657 15 7.44444V14.5556C15 14.6734 14.8946 14.7865 14.7071 14.8698C14.5196 14.9532 14.2652 15 14 15C13.7348 15 13.4804 14.9532 13.2929 14.8698C13.1054 14.7865 13 14.6734 13 14.5556Z" fill="white"/>
</svg>
