<svg width="8" height="12" viewBox="0 0 8 12" fill="none" xmlns="http://www.w3.org/2000/svg">
<path fill-rule="evenodd" clip-rule="evenodd" d="M6.43137 7.14036C6.58241 7.039 6.76924 6.98979 6.95756 7.00177C7.14588 7.01374 7.32306 7.08609 7.45656 7.20554C7.59005 7.32499 7.67092 7.48352 7.6843 7.65203C7.69769 7.82053 7.64269 7.9877 7.52941 8.12284L4.39216 10.9299C4.24555 11.0585 4.04843 11.1305 3.84314 11.1305C3.63784 11.1305 3.44073 11.0585 3.29412 10.9299L0.156864 8.12284C0.0435863 7.9877 -0.0114094 7.82053 0.0019742 7.65203C0.0153578 7.48352 0.0962223 7.32499 0.229721 7.20554C0.36322 7.08609 0.540394 7.01374 0.728715 7.00177C0.917037 6.98979 1.10387 7.039 1.2549 7.14036L3.84314 9.44919L6.43137 7.13334V7.14036Z" fill="#0F609B"/>
<path d="M1.15973 4.18528C1.25839 4.13715 1.34434 4.07062 1.41177 3.99018V4.00422L4 1.68837L6.58823 3.99018C6.65566 4.07062 6.74161 4.13715 6.84027 4.18528C6.93893 4.2334 7.048 4.262 7.16009 4.26913C7.27217 4.27625 7.38467 4.26175 7.48994 4.22659C7.59522 4.19143 7.69082 4.13644 7.77028 4.06535C7.84974 3.99425 7.91119 3.90871 7.95049 3.81451C7.98978 3.72031 8.00599 3.61966 7.99803 3.51937C7.99006 3.41908 7.9581 3.32149 7.90431 3.23321C7.85053 3.14493 7.77617 3.06803 7.68627 3.0077L4.54902 0.200607C4.40241 0.0720235 4.2053 0 4 0C3.7947 0 3.59759 0.0720235 3.45098 0.200607L0.313726 3.0077C0.223829 3.06803 0.14947 3.14493 0.0956831 3.23321C0.0418966 3.32149 0.00993901 3.41908 0.00197319 3.51937C-0.00599262 3.61966 0.0102207 3.72031 0.0495139 3.81451C0.088807 3.90871 0.150262 3.99425 0.22972 4.06535C0.309178 4.13644 0.404782 4.19143 0.510058 4.22659C0.615335 4.26175 0.727826 4.27625 0.839913 4.26913C0.952001 4.262 1.06107 4.2334 1.15973 4.18528Z" fill="#BCCCDC"/>
</svg>
