<svg width="9" height="12" viewBox="0 0 9 12" fill="none" xmlns="http://www.w3.org/2000/svg">
<path d="M7.95561 7.00177C7.76729 6.98979 7.58046 7.039 7.42942 7.14035V7.13334L4.84118 9.44919L2.25295 7.14035C2.10191 7.039 1.91508 6.98979 1.72676 7.00177C1.53844 7.01374 1.36127 7.08609 1.22777 7.20554C1.09427 7.32499 1.0134 7.48352 1.00002 7.65202C0.986637 7.82053 1.04163 7.9877 1.15491 8.12284L4.29217 10.9299C4.43878 11.0585 4.63589 11.1305 4.84118 11.1305C5.04648 11.1305 5.24359 11.0585 5.3902 10.9299L8.52746 8.12284C8.64074 7.9877 8.69573 7.82053 8.68235 7.65202C8.66896 7.48352 8.5881 7.32499 8.4546 7.20554C8.3211 7.08609 8.14393 7.01374 7.95561 7.00177Z" fill="#BCCCDC"/>
<path fill-rule="evenodd" clip-rule="evenodd" d="M2.41176 3.99018C2.34434 4.07062 2.25839 4.13715 2.15973 4.18528C2.06107 4.2334 1.952 4.262 1.83991 4.26913C1.72783 4.27625 1.61533 4.26175 1.51006 4.22659C1.40478 4.19143 1.30918 4.13644 1.22972 4.06535C1.15026 3.99425 1.08881 3.90871 1.04951 3.81451C1.01022 3.72031 0.994007 3.61966 1.00197 3.51937C1.00994 3.41908 1.0419 3.32149 1.09568 3.23321C1.14947 3.14493 1.22383 3.06803 1.31373 3.0077L4.45098 0.200607C4.59759 0.0720232 4.7947 0 5 0C5.2053 0 5.40241 0.0720232 5.54902 0.200607L8.68628 3.0077C8.77617 3.06803 8.85053 3.14493 8.90432 3.23321C8.9581 3.32149 8.99006 3.41908 8.99803 3.51937C9.00599 3.61966 8.98978 3.72031 8.95049 3.81451C8.91119 3.90871 8.84974 3.99425 8.77028 4.06535C8.69082 4.13644 8.59522 4.19143 8.48994 4.22659C8.38467 4.26175 8.27218 4.27625 8.16009 4.26913C8.048 4.262 7.93893 4.2334 7.84027 4.18528C7.74161 4.13715 7.65566 4.07062 7.58824 3.99018L5 1.68837L2.41176 4.00422V3.99018Z" fill="#0F609B"/>
</svg>
