<svg width="9" height="12" viewBox="0 0 9 12" fill="none" xmlns="http://www.w3.org/2000/svg">
<path fill-rule="evenodd" clip-rule="evenodd" d="M2.22646 3.99018C2.15904 4.07062 2.07309 4.13715 1.97443 4.18528C1.87576 4.2334 1.7667 4.262 1.65461 4.26913C1.54252 4.27625 1.43003 4.26175 1.32476 4.22659C1.21948 4.19143 1.12388 4.13644 1.04442 4.06535C0.96496 3.99425 0.903503 3.90871 0.86421 3.81451C0.824917 3.72031 0.808705 3.61966 0.816671 3.51937C0.824636 3.41908 0.856595 3.32149 0.910381 3.23321C0.964168 3.14493 1.03853 3.06803 1.12842 3.0077L4.26568 0.200607C4.41229 0.0720232 4.6094 0 4.8147 0C5.01999 0 5.21711 0.0720232 5.36372 0.200607L8.50097 3.0077C8.59087 3.06803 8.66523 3.14493 8.71901 3.23321C8.7728 3.32149 8.80476 3.41908 8.81272 3.51937C8.82069 3.61966 8.80448 3.72031 8.76518 3.81451C8.72589 3.90871 8.66443 3.99425 8.58498 4.06535C8.50552 4.13644 8.40992 4.19143 8.30464 4.22659C8.19936 4.26175 8.08687 4.27625 7.97478 4.26913C7.8627 4.262 7.75363 4.2334 7.65497 4.18528C7.55631 4.13715 7.47035 4.07062 7.40293 3.99018L4.8147 1.68837L2.22646 4.00422V3.99018ZM7.40293 7.21834C7.55397 7.11698 7.7408 7.06778 7.92912 7.07975C8.11744 7.09173 8.29462 7.16408 8.42811 7.28353C8.56161 7.40298 8.64248 7.56151 8.65586 7.73001C8.66924 7.89851 8.61425 8.06568 8.50097 8.20082L5.36372 11.0079C5.21711 11.1365 5.01999 11.2085 4.8147 11.2085C4.6094 11.2085 4.41229 11.1365 4.26568 11.0079L1.12842 8.20082C1.01515 8.06568 0.96015 7.89851 0.973533 7.73001C0.986917 7.56151 1.06778 7.40298 1.20128 7.28353C1.33478 7.16408 1.51195 7.09173 1.70027 7.07975C1.8886 7.06778 2.07542 7.11698 2.22646 7.21834L4.8147 9.52717L7.40293 7.21132V7.21834Z" fill="#829AB1"/>
</svg>
