<svg width="8" height="12" viewBox="0 0 8 12" fill="none" xmlns="http://www.w3.org/2000/svg">
<path fill-rule="evenodd" clip-rule="evenodd" d="M1.41176 3.99018C1.34434 4.07062 1.25839 4.13715 1.15973 4.18528C1.06107 4.2334 0.952001 4.262 0.839913 4.26913C0.727825 4.27625 0.615335 4.26175 0.510058 4.22659C0.404782 4.19143 0.309178 4.13644 0.22972 4.06535C0.150262 3.99425 0.0888061 3.90871 0.049513 3.81451C0.0102199 3.72031 -0.00599256 3.61966 0.00197326 3.51937C0.00993908 3.41908 0.0418974 3.32149 0.0956839 3.23321C0.14947 3.14493 0.223829 3.06803 0.313726 3.0077L3.45098 0.200607C3.59759 0.0720232 3.7947 0 4 0C4.2053 0 4.40241 0.0720232 4.54902 0.200607L7.68628 3.0077C7.77617 3.06803 7.85053 3.14493 7.90432 3.23321C7.9581 3.32149 7.99006 3.41908 7.99803 3.51937C8.00599 3.61966 7.98978 3.72031 7.95049 3.81451C7.91119 3.90871 7.84974 3.99425 7.77028 4.06535C7.69082 4.13644 7.59522 4.19143 7.48994 4.22659C7.38467 4.26175 7.27218 4.27625 7.16009 4.26913C7.048 4.262 6.93893 4.2334 6.84027 4.18528C6.74161 4.13715 6.65566 4.07062 6.58824 3.99018L4 1.68837L1.41176 4.00422V3.99018ZM6.58824 7.21834C6.73927 7.11698 6.9261 7.06778 7.11442 7.07975C7.30274 7.09173 7.47992 7.16408 7.61342 7.28353C7.74692 7.40298 7.82778 7.56151 7.84116 7.73001C7.85455 7.89851 7.79955 8.06568 7.68628 8.20082L4.54902 11.0079C4.40241 11.1365 4.2053 11.2085 4 11.2085C3.7947 11.2085 3.59759 11.1365 3.45098 11.0079L0.313726 8.20082C0.200448 8.06568 0.145452 7.89851 0.158836 7.73001C0.172219 7.56151 0.253084 7.40298 0.386583 7.28353C0.520082 7.16408 0.697256 7.09173 0.885577 7.07975C1.0739 7.06778 1.26073 7.11698 1.41176 7.21834L4 9.52717L6.58824 7.21132V7.21834Z" fill="#BCCCDC"/>
</svg>
