<svg width="23" height="25" viewBox="0 0 23 25" fill="none" xmlns="http://www.w3.org/2000/svg">
<path d="M11.5339 12.4663C9.9243 12.4663 8.38061 11.8269 7.24244 10.6887C6.10426 9.55052 5.46484 8.00682 5.46484 6.3972C5.46484 4.78758 6.10426 3.24389 7.24244 2.10572C8.38061 0.967544 9.9243 0.328125 11.5339 0.328125C13.1435 0.328125 14.6872 0.967544 15.8254 2.10572C16.9636 3.24389 17.603 4.78758 17.603 6.3972C17.603 8.00682 16.9636 9.55052 15.8254 10.6887C14.6872 11.8269 13.1435 12.4663 11.5339 12.4663Z" fill="#4098D7"/>
<path d="M22.4581 22.1768V20.963C22.4581 19.3534 21.8186 17.8097 20.6805 16.6715C19.5423 15.5333 17.9986 14.8939 16.389 14.8939H6.67845C5.06883 14.8939 3.52514 15.5333 2.38697 16.6715C1.24879 17.8097 0.609375 19.3534 0.609375 20.963V22.1768C0.609375 23.512 1.70181 24.6044 3.03701 24.6044H20.0304C20.6743 24.6044 21.2918 24.3487 21.747 23.8934C22.2023 23.4381 22.4581 22.8207 22.4581 22.1768Z" fill="#4098D7"/>
</svg>
