<svg width="20" height="20" viewBox="0 0 20 20" fill="none" xmlns="http://www.w3.org/2000/svg">
<path d="M20 4.61516H0V6.15344H20V4.61516Z" fill="#F5F5F5"/>
<path d="M18.9556 1.5384H1.04436C0.665137 1.98324 0.373301 2.50484 0.195801 3.07688H19.8042C19.6267 2.50484 19.3348 1.98324 18.9556 1.5384Z" fill="#F5F5F5"/>
<path d="M20 7.69212H0V9.2304H20V7.69212Z" fill="#F5F5F5"/>
<path d="M20 10.7691H0V12.3074H20V10.7691Z" fill="#F5F5F5"/>
<path d="M20 13.846H0V15.3843H20V13.846Z" fill="#F5F5F5"/>
<path d="M19.8042 16.923H0.195801C0.373262 17.495 0.665137 18.0166 1.04436 18.4614H18.9556C19.3348 18.0166 19.6267 17.495 19.8042 16.923Z" fill="#F5F5F5"/>
<path d="M15.6248 0H4.37481C3.04091 0 1.84665 0.597148 1.04419 1.53848H18.9554C18.153 0.597148 16.9587 0 15.6248 0Z" fill="#FF4B55"/>
<path d="M20 6.15396H0V7.69224H20V6.15396Z" fill="#FF4B55"/>
<path d="M20 4.37494C20 3.92294 19.9314 3.48701 19.8042 3.07689H0.19582C0.0685547 3.48701 0 3.92294 0 4.37494V4.61533H20V4.37494Z" fill="#FF4B55"/>
<path d="M20 9.23086H0V10.7691H20V9.23086Z" fill="#FF4B55"/>
<path d="M20 15.6251V15.3847H0V15.6251C0 16.0771 0.0685547 16.513 0.19582 16.9231H19.8042C19.9314 16.513 20 16.0771 20 15.6251Z" fill="#FF4B55"/>
<path d="M18.9554 18.4616H1.04419C1.84665 19.4029 3.04091 20.0001 4.37481 20.0001H15.6248C16.9587 20.0001 18.153 19.4029 18.9554 18.4616Z" fill="#FF4B55"/>
<path d="M20 12.3079H0V13.8462H20V12.3079Z" fill="#FF4B55"/>
<path d="M10.7692 0H4.375C1.95875 0 0 1.95875 0 4.375V10.7692H10.7692V0Z" fill="#41479B"/>
<path d="M1.16191 1.68214C1.15167 1.71452 1.18851 1.74132 1.21616 1.72155L1.42956 1.56905L1.64296 1.72155C1.67058 1.74132 1.70745 1.71452 1.69722 1.68214L1.61812 1.43206L1.82913 1.27624C1.85644 1.25605 1.84237 1.21273 1.80839 1.21245L1.54612 1.21042L1.50136 1.0762C1.38894 1.17421 1.28171 1.27796 1.17987 1.38683L1.24109 1.43206L1.16191 1.68214Z" fill="#F5F5F5"/>
<path d="M1.4632 3.03725L1.54617 3.28608L1.80843 3.28811C1.84238 3.28839 1.85648 3.33171 1.82918 3.3519L1.61816 3.50772L1.69726 3.7578C1.7075 3.79018 1.67066 3.81694 1.643 3.79722L1.42961 3.64468L1.21621 3.79722C1.18859 3.81698 1.15171 3.79018 1.16195 3.7578L1.24105 3.50772L1.03003 3.3519C1.00273 3.33175 1.01679 3.28839 1.05074 3.28811L1.313 3.28608L1.39597 3.03725C1.40687 3.00503 1.45246 3.00503 1.4632 3.03725Z" fill="#F5F5F5"/>
<path d="M1.4632 5.33934L1.54617 5.58817L1.80843 5.5902C1.84238 5.59047 1.85648 5.63379 1.82918 5.65399L1.61816 5.80981L1.69726 6.05989C1.7075 6.09227 1.67066 6.11903 1.643 6.0993L1.42961 5.9468L1.21621 6.0993C1.18859 6.11903 1.15171 6.09227 1.16195 6.05989L1.24105 5.80981L1.03003 5.65399C1.00273 5.63383 1.01679 5.59047 1.05074 5.5902L1.313 5.58817L1.39597 5.33934C1.40687 5.30711 1.45246 5.30711 1.4632 5.33934Z" fill="#F5F5F5"/>
<path d="M1.4632 7.45441L1.54617 7.70324L1.80843 7.70527C1.84238 7.70555 1.85648 7.74887 1.82918 7.76906L1.61816 7.92488L1.69726 8.17496C1.7075 8.20734 1.67066 8.2341 1.643 8.21438L1.42961 8.06184L1.21621 8.21438C1.18859 8.2341 1.15171 8.20734 1.16195 8.17496L1.24105 7.92488L1.03003 7.76906C1.00273 7.74891 1.01679 7.70555 1.05074 7.70527L1.313 7.70324L1.39597 7.45441C1.40687 7.42219 1.45246 7.42219 1.4632 7.45441Z" fill="#F5F5F5"/>
<path d="M1.4632 9.37922L1.54617 9.62805L1.80843 9.63008C1.84238 9.63035 1.85648 9.67367 1.82918 9.69386L1.61816 9.84968L1.69726 10.0998C1.7075 10.1321 1.67066 10.1589 1.643 10.1392L1.42961 9.98668L1.21621 10.1392C1.18859 10.1589 1.15171 10.1321 1.16195 10.0998L1.24105 9.84968L1.03003 9.69386C1.00273 9.67371 1.01679 9.63035 1.05074 9.63008L1.313 9.62805L1.39597 9.37922C1.40687 9.34699 1.45246 9.34699 1.4632 9.37922Z" fill="#F5F5F5"/>
<path d="M2.47333 1.9445L2.5563 2.19333L2.81857 2.19536C2.85251 2.19564 2.86662 2.23896 2.83931 2.25911L2.6283 2.41493L2.7074 2.66501C2.71763 2.69739 2.6808 2.72419 2.65314 2.70443L2.43982 2.55189L2.22642 2.70443C2.1988 2.72419 2.16193 2.69739 2.17216 2.66501L2.25126 2.41493L2.04029 2.25911C2.01298 2.23896 2.02705 2.1956 2.06099 2.19536L2.32326 2.19333L2.40623 1.9445C2.41701 1.91228 2.46259 1.91228 2.47333 1.9445Z" fill="#F5F5F5"/>
<path d="M2.47341 4.2466L2.55638 4.49543L2.81865 4.49746C2.85259 4.49774 2.86669 4.54106 2.83939 4.56125L2.62837 4.71707L2.70748 4.96715C2.71771 4.99953 2.68087 5.02633 2.65322 5.00657L2.43982 4.85403L2.22642 5.00657C2.1988 5.02633 2.16193 4.99953 2.17216 4.96715L2.25127 4.71707L2.04029 4.56125C2.01298 4.5411 2.02705 4.49774 2.06099 4.49746L2.32326 4.49543L2.40623 4.2466C2.41709 4.21438 2.46267 4.21438 2.47341 4.2466Z" fill="#F5F5F5"/>
<path d="M2.47341 6.43392L2.55638 6.68275L2.81865 6.68478C2.85259 6.68506 2.86669 6.72838 2.83939 6.74857L2.62837 6.90439L2.70748 7.15447C2.71771 7.18685 2.68087 7.21361 2.65322 7.19388L2.43982 7.04135L2.22642 7.19388C2.1988 7.21365 2.16193 7.18685 2.17216 7.15447L2.25127 6.90439L2.04029 6.74857C2.01298 6.72842 2.02705 6.68506 2.06099 6.68478L2.32326 6.68275L2.40623 6.43392C2.41709 6.40174 2.46267 6.40174 2.47341 6.43392Z" fill="#F5F5F5"/>
<path d="M2.47341 8.39794L2.55638 8.64677L2.81865 8.6488C2.85259 8.64907 2.86669 8.69239 2.83939 8.71259L2.62837 8.86841L2.70748 9.11849C2.71771 9.15087 2.68087 9.17766 2.65322 9.1579L2.43982 9.0054L2.22642 9.1579C2.1988 9.17766 2.16193 9.15087 2.17216 9.11849L2.25127 8.86841L2.04029 8.71259C2.01298 8.69243 2.02705 8.64907 2.06099 8.6488L2.32326 8.64677L2.40623 8.39794C2.41709 8.36572 2.46267 8.36572 2.47341 8.39794Z" fill="#F5F5F5"/>
<path d="M3.48391 0.961641L3.56688 1.21047L3.82915 1.2125C3.86309 1.21277 3.87719 1.25609 3.84989 1.27625L3.63887 1.43207L3.71797 1.68215C3.72821 1.71453 3.69137 1.74129 3.66372 1.72156L3.45032 1.56902L3.23692 1.72156C3.2093 1.74133 3.17243 1.71453 3.18266 1.68215L3.26176 1.43207L3.05079 1.27625C3.02348 1.25609 3.03754 1.21273 3.07149 1.2125L3.33376 1.21047L3.41672 0.961641C3.42758 0.929453 3.47317 0.929453 3.48391 0.961641Z" fill="#F5F5F5"/>
<path d="M3.48391 3.03725L3.56688 3.28608L3.82915 3.28811C3.86309 3.28839 3.87719 3.33171 3.84989 3.3519L3.63887 3.50772L3.71797 3.7578C3.72821 3.79018 3.69137 3.81694 3.66372 3.79722L3.45032 3.64468L3.23692 3.79722C3.2093 3.81698 3.17243 3.79018 3.18266 3.7578L3.26176 3.50772L3.05079 3.3519C3.02348 3.33175 3.03754 3.28839 3.07149 3.28811L3.33376 3.28608L3.41672 3.03725C3.42758 3.00503 3.47317 3.00503 3.48391 3.03725Z" fill="#F5F5F5"/>
<path d="M3.48391 5.33934L3.56688 5.58817L3.82915 5.5902C3.86309 5.59047 3.87719 5.63379 3.84989 5.65399L3.63887 5.80981L3.71797 6.05989C3.72821 6.09227 3.69137 6.11903 3.66372 6.0993L3.45032 5.9468L3.23692 6.0993C3.2093 6.11903 3.17243 6.09227 3.18266 6.05989L3.26176 5.80981L3.05079 5.65399C3.02348 5.63383 3.03754 5.59047 3.07149 5.5902L3.33376 5.58817L3.41672 5.33934C3.42758 5.30711 3.47317 5.30711 3.48391 5.33934Z" fill="#F5F5F5"/>
<path d="M3.48391 7.45441L3.56688 7.70324L3.82915 7.70527C3.86309 7.70555 3.87719 7.74887 3.84989 7.76906L3.63887 7.92488L3.71797 8.17496C3.72821 8.20734 3.69137 8.2341 3.66372 8.21438L3.45032 8.06184L3.23692 8.21438C3.2093 8.2341 3.17243 8.20734 3.18266 8.17496L3.26176 7.92488L3.05079 7.76906C3.02348 7.74891 3.03754 7.70555 3.07149 7.70527L3.33376 7.70324L3.41672 7.45441C3.42758 7.42219 3.47317 7.42219 3.48391 7.45441Z" fill="#F5F5F5"/>
<path d="M3.48391 9.37922L3.56688 9.62805L3.82915 9.63008C3.86309 9.63035 3.87719 9.67367 3.84989 9.69386L3.63887 9.84968L3.71797 10.0998C3.72821 10.1321 3.69137 10.1589 3.66372 10.1392L3.45032 9.98668L3.23692 10.1392C3.2093 10.1589 3.17243 10.1321 3.18266 10.0998L3.26176 9.84968L3.05079 9.69386C3.02348 9.67371 3.03754 9.63035 3.07149 9.63008L3.33376 9.62805L3.41672 9.37922C3.42758 9.34699 3.47317 9.34699 3.48391 9.37922Z" fill="#F5F5F5"/>
<path d="M4.49396 1.9445L4.57693 2.19333L4.83919 2.19536C4.87314 2.19564 4.88724 2.23896 4.8599 2.25911L4.64892 2.41493L4.72802 2.66501C4.73826 2.69739 4.70142 2.72419 4.67376 2.70443L4.46036 2.55189L4.24697 2.70443C4.21935 2.72419 4.18247 2.69739 4.19271 2.66501L4.27181 2.41493L4.06079 2.25911C4.03349 2.23896 4.04755 2.1956 4.08154 2.19536L4.3438 2.19333L4.42677 1.9445C4.43767 1.91228 4.48322 1.91228 4.49396 1.9445Z" fill="#F5F5F5"/>
<path d="M4.49396 4.2466L4.57693 4.49543L4.83919 4.49746C4.87314 4.49774 4.88724 4.54106 4.8599 4.56125L4.64892 4.71707L4.72802 4.96715C4.73826 4.99953 4.70142 5.02633 4.67376 5.00657L4.46036 4.85403L4.24697 5.00657C4.21935 5.02633 4.18247 4.99953 4.19271 4.96715L4.27181 4.71707L4.06079 4.56125C4.03349 4.5411 4.04755 4.49774 4.08154 4.49746L4.3438 4.49543L4.42677 4.2466C4.43767 4.21438 4.48322 4.21438 4.49396 4.2466Z" fill="#F5F5F5"/>
<path d="M4.49396 6.43392L4.57693 6.68275L4.83919 6.68478C4.87314 6.68506 4.88724 6.72838 4.8599 6.74857L4.64892 6.90439L4.72802 7.15447C4.73826 7.18685 4.70142 7.21361 4.67376 7.19388L4.46036 7.04135L4.24697 7.19388C4.21935 7.21365 4.18247 7.18685 4.19271 7.15447L4.27181 6.90439L4.06079 6.74857C4.03349 6.72842 4.04755 6.68506 4.08154 6.68478L4.3438 6.68275L4.42677 6.43392C4.43767 6.40174 4.48322 6.40174 4.49396 6.43392Z" fill="#F5F5F5"/>
<path d="M4.49396 8.39794L4.57693 8.64677L4.83919 8.6488C4.87314 8.64907 4.88724 8.69239 4.8599 8.71259L4.64892 8.86841L4.72802 9.11849C4.73826 9.15087 4.70142 9.17766 4.67376 9.1579L4.46036 9.0054L4.24697 9.1579C4.21935 9.17766 4.18247 9.15087 4.19271 9.11849L4.27181 8.86841L4.06079 8.71259C4.03349 8.69243 4.04755 8.64907 4.08154 8.6488L4.3438 8.64677L4.42677 8.39794C4.43767 8.36572 4.48322 8.36572 4.49396 8.39794Z" fill="#F5F5F5"/>
<path d="M5.50417 0.961641L5.58714 1.21047L5.84941 1.2125C5.88335 1.21277 5.89746 1.25609 5.87011 1.27625L5.65914 1.43207L5.73824 1.68215C5.74847 1.71453 5.71164 1.74129 5.68398 1.72156L5.47058 1.56902L5.25718 1.72156C5.22956 1.74133 5.19269 1.71453 5.20292 1.68215L5.28203 1.43207L5.07105 1.27625C5.04374 1.25609 5.05781 1.21273 5.09179 1.2125L5.35406 1.21047L5.43703 0.961641C5.44789 0.929453 5.49343 0.929453 5.50417 0.961641Z" fill="#F5F5F5"/>
<path d="M5.50413 3.03723L5.5871 3.28606L5.84937 3.28809C5.88331 3.28836 5.89741 3.33168 5.87007 3.35188L5.65909 3.5077L5.73823 3.75774C5.74847 3.79012 5.71163 3.81688 5.68398 3.79715L5.47058 3.64461L5.25718 3.79715C5.22956 3.81692 5.19269 3.79012 5.20292 3.75774L5.28202 3.50766L5.07105 3.35184C5.04374 3.33168 5.05781 3.28832 5.09179 3.28805L5.35406 3.28602L5.43702 3.03719C5.44784 3.005 5.49339 3.005 5.50413 3.03723Z" fill="#F5F5F5"/>
<path d="M5.50417 5.33934L5.58714 5.58817L5.84941 5.5902C5.88335 5.59047 5.89746 5.63379 5.87011 5.65399L5.65914 5.80981L5.73824 6.05989C5.74847 6.09227 5.71164 6.11903 5.68398 6.0993L5.47058 5.9468L5.25718 6.0993C5.22956 6.11903 5.19269 6.09227 5.20292 6.05989L5.28203 5.80981L5.07105 5.65399C5.04374 5.63383 5.05781 5.59047 5.09179 5.5902L5.35406 5.58817L5.43703 5.33934C5.44789 5.30711 5.49343 5.30711 5.50417 5.33934Z" fill="#F5F5F5"/>
<path d="M5.50417 7.45441L5.58714 7.70324L5.84941 7.70527C5.88335 7.70555 5.89746 7.74887 5.87011 7.76906L5.65914 7.92488L5.73824 8.17496C5.74847 8.20734 5.71164 8.2341 5.68398 8.21438L5.47058 8.06184L5.25718 8.21438C5.22956 8.2341 5.19269 8.20734 5.20292 8.17496L5.28203 7.92488L5.07105 7.76906C5.04374 7.74891 5.05781 7.70555 5.09179 7.70527L5.35406 7.70324L5.43703 7.45441C5.44789 7.42219 5.49343 7.42219 5.50417 7.45441Z" fill="#F5F5F5"/>
<path d="M5.50417 9.37922L5.58714 9.62805L5.84941 9.63008C5.88335 9.63035 5.89746 9.67367 5.87011 9.69386L5.65914 9.84968L5.73824 10.0998C5.74847 10.1321 5.71164 10.1589 5.68398 10.1392L5.47058 9.98668L5.25718 10.1392C5.22956 10.1589 5.19269 10.1321 5.20292 10.0998L5.28203 9.84968L5.07105 9.69386C5.04374 9.67371 5.05781 9.63035 5.09179 9.63008L5.35406 9.62805L5.43703 9.37922C5.44789 9.34699 5.49343 9.34699 5.50417 9.37922Z" fill="#F5F5F5"/>
<path d="M6.51471 1.9445L6.59768 2.19333L6.85995 2.19536C6.89389 2.19564 6.90799 2.23896 6.88065 2.25911L6.66963 2.41493L6.74874 2.66501C6.75897 2.69739 6.72209 2.72419 6.69448 2.70443L6.48108 2.55189L6.26768 2.70443C6.24006 2.72419 6.20319 2.69739 6.21342 2.66501L6.29253 2.41493L6.08155 2.25911C6.05424 2.23896 6.06831 2.1956 6.10225 2.19536L6.36452 2.19333L6.44749 1.9445C6.45842 1.91228 6.50397 1.91228 6.51471 1.9445Z" fill="#F5F5F5"/>
<path d="M6.51471 4.2466L6.59768 4.49543L6.85995 4.49746C6.89389 4.49774 6.90799 4.54106 6.88065 4.56125L6.66963 4.71707L6.74874 4.96715C6.75897 4.99953 6.72209 5.02633 6.69448 5.00657L6.48108 4.85403L6.26768 5.00657C6.24006 5.02633 6.20319 4.99953 6.21342 4.96715L6.29253 4.71707L6.08155 4.56125C6.05424 4.5411 6.06831 4.49774 6.10225 4.49746L6.36452 4.49543L6.44749 4.2466C6.45842 4.21438 6.50397 4.21438 6.51471 4.2466Z" fill="#F5F5F5"/>
<path d="M6.51471 6.43392L6.59768 6.68275L6.85995 6.68478C6.89389 6.68506 6.90799 6.72838 6.88065 6.74857L6.66963 6.90439L6.74874 7.15447C6.75897 7.18685 6.72209 7.21361 6.69448 7.19388L6.48108 7.04135L6.26768 7.19388C6.24006 7.21365 6.20319 7.18685 6.21342 7.15447L6.29253 6.90439L6.08155 6.74857C6.05424 6.72842 6.06831 6.68506 6.10225 6.68478L6.36452 6.68275L6.44749 6.43392C6.45842 6.40174 6.50397 6.40174 6.51471 6.43392Z" fill="#F5F5F5"/>
<path d="M6.51471 8.39794L6.59768 8.64677L6.85995 8.6488C6.89389 8.64907 6.90799 8.69239 6.88065 8.71259L6.66963 8.86841L6.74874 9.11849C6.75897 9.15087 6.72209 9.17766 6.69448 9.1579L6.48108 9.0054L6.26768 9.1579C6.24006 9.17766 6.20319 9.15087 6.21342 9.11849L6.29253 8.86841L6.08155 8.71259C6.05424 8.69243 6.06831 8.64907 6.10225 8.6488L6.36452 8.64677L6.44749 8.39794C6.45842 8.36572 6.50397 8.36572 6.51471 8.39794Z" fill="#F5F5F5"/>
<path d="M7.525 0.961641L7.60797 1.21047L7.87024 1.2125C7.90418 1.21277 7.91828 1.25609 7.89094 1.27625L7.67993 1.43207L7.75903 1.68215C7.76926 1.71453 7.73239 1.74129 7.70477 1.72156L7.49137 1.56902L7.27797 1.72156C7.25036 1.74133 7.21348 1.71453 7.22371 1.68215L7.30282 1.43207L7.0918 1.27625C7.0645 1.25609 7.07856 1.21273 7.11254 1.2125L7.37481 1.21047L7.45778 0.961641C7.46871 0.929453 7.51426 0.929453 7.525 0.961641Z" fill="#F5F5F5"/>
<path d="M7.525 3.03725L7.60797 3.28608L7.87024 3.28811C7.90418 3.28839 7.91828 3.33171 7.89094 3.3519L7.67993 3.50772L7.75903 3.7578C7.76926 3.79018 7.73239 3.81694 7.70477 3.79722L7.49137 3.64468L7.27797 3.79722C7.25036 3.81698 7.21348 3.79018 7.22371 3.7578L7.30282 3.50772L7.0918 3.3519C7.0645 3.33175 7.07856 3.28839 7.11254 3.28811L7.37481 3.28608L7.45778 3.03725C7.46871 3.00503 7.51426 3.00503 7.525 3.03725Z" fill="#F5F5F5"/>
<path d="M7.525 5.33934L7.60797 5.58817L7.87024 5.5902C7.90418 5.59047 7.91828 5.63379 7.89094 5.65399L7.67993 5.80981L7.75903 6.05989C7.76926 6.09227 7.73239 6.11903 7.70477 6.0993L7.49137 5.9468L7.27797 6.0993C7.25036 6.11903 7.21348 6.09227 7.22371 6.05989L7.30282 5.80981L7.0918 5.65399C7.0645 5.63383 7.07856 5.59047 7.11254 5.5902L7.37481 5.58817L7.45778 5.33934C7.46871 5.30711 7.51426 5.30711 7.525 5.33934Z" fill="#F5F5F5"/>
<path d="M7.525 7.45441L7.60797 7.70324L7.87024 7.70527C7.90418 7.70555 7.91828 7.74887 7.89094 7.76906L7.67993 7.92488L7.75903 8.17496C7.76926 8.20734 7.73239 8.2341 7.70477 8.21438L7.49137 8.06184L7.27797 8.21438C7.25036 8.2341 7.21348 8.20734 7.22371 8.17496L7.30282 7.92488L7.0918 7.76906C7.0645 7.74891 7.07856 7.70555 7.11254 7.70527L7.37481 7.70324L7.45778 7.45441C7.46871 7.42219 7.51426 7.42219 7.525 7.45441Z" fill="#F5F5F5"/>
<path d="M7.525 9.37922L7.60797 9.62805L7.87024 9.63008C7.90418 9.63035 7.91828 9.67367 7.89094 9.69386L7.67993 9.84968L7.75903 10.0998C7.76926 10.1321 7.73239 10.1589 7.70477 10.1392L7.49137 9.98668L7.27797 10.1392C7.25036 10.1589 7.21348 10.1321 7.22371 10.0998L7.30282 9.84968L7.0918 9.69386C7.0645 9.67371 7.07856 9.63035 7.11254 9.63008L7.37481 9.62805L7.45778 9.37922C7.46871 9.34699 7.51426 9.34699 7.525 9.37922Z" fill="#F5F5F5"/>
<path d="M8.53498 1.9445L8.61794 2.19333L8.88025 2.19536C8.91419 2.19564 8.9283 2.23896 8.90095 2.25911L8.68994 2.41493L8.76904 2.66501C8.77927 2.69739 8.7424 2.72419 8.71478 2.70443L8.50138 2.55189L8.28798 2.70443C8.26037 2.72419 8.22349 2.69739 8.23373 2.66501L8.31283 2.41493L8.10181 2.25911C8.07451 2.23896 8.08857 2.1956 8.12252 2.19536L8.38482 2.19333L8.46779 1.9445C8.47869 1.91228 8.52423 1.91228 8.53498 1.9445Z" fill="#F5F5F5"/>
<path d="M8.53498 4.2466L8.61794 4.49543L8.88025 4.49746C8.91419 4.49774 8.9283 4.54106 8.90095 4.56125L8.68994 4.71707L8.76904 4.96715C8.77927 4.99953 8.7424 5.02633 8.71478 5.00657L8.50138 4.85403L8.28798 5.00657C8.26037 5.02633 8.22349 4.99953 8.23373 4.96715L8.31283 4.71707L8.10181 4.56125C8.07451 4.5411 8.08857 4.49774 8.12252 4.49746L8.38482 4.49543L8.46779 4.2466C8.47869 4.21438 8.52423 4.21438 8.53498 4.2466Z" fill="#F5F5F5"/>
<path d="M8.53498 6.43392L8.61794 6.68275L8.88025 6.68478C8.91419 6.68506 8.9283 6.72838 8.90095 6.74857L8.68994 6.90439L8.76904 7.15447C8.77927 7.18685 8.7424 7.21361 8.71478 7.19388L8.50138 7.04135L8.28798 7.19388C8.26037 7.21365 8.22349 7.18685 8.23373 7.15447L8.31283 6.90439L8.10181 6.74857C8.07451 6.72842 8.08857 6.68506 8.12252 6.68478L8.38482 6.68275L8.46779 6.43392C8.47869 6.40174 8.52423 6.40174 8.53498 6.43392Z" fill="#F5F5F5"/>
<path d="M8.53498 8.39794L8.61794 8.64677L8.88025 8.6488C8.91419 8.64907 8.9283 8.69239 8.90095 8.71259L8.68994 8.86841L8.76904 9.11849C8.77927 9.15087 8.7424 9.17766 8.71478 9.1579L8.50138 9.0054L8.28798 9.1579C8.26037 9.17766 8.22349 9.15087 8.23373 9.11849L8.31283 8.86841L8.10181 8.71259C8.07451 8.69243 8.08857 8.64907 8.12252 8.6488L8.38482 8.64677L8.46779 8.39794C8.47869 8.36572 8.52423 8.36572 8.53498 8.39794Z" fill="#F5F5F5"/>
<path d="M9.54523 0.961641L9.6282 1.21047L9.89046 1.2125C9.92441 1.21277 9.93851 1.25609 9.91121 1.27625L9.70019 1.43207L9.77929 1.68215C9.78953 1.71453 9.75265 1.74129 9.72504 1.72156L9.51164 1.56902L9.29824 1.72156C9.27062 1.74133 9.23375 1.71453 9.24398 1.68215L9.32308 1.43207L9.11207 1.27625C9.08476 1.25609 9.09882 1.21273 9.13277 1.2125L9.39504 1.21047L9.478 0.961641C9.48894 0.929453 9.53449 0.929453 9.54523 0.961641Z" fill="#F5F5F5"/>
<path d="M9.54523 3.03725L9.6282 3.28608L9.89046 3.28811C9.92441 3.28839 9.93851 3.33171 9.91121 3.3519L9.70019 3.50772L9.77929 3.7578C9.78953 3.79018 9.75265 3.81694 9.72504 3.79722L9.51164 3.64468L9.29824 3.79722C9.27062 3.81698 9.23375 3.79018 9.24398 3.7578L9.32308 3.50772L9.11207 3.3519C9.08476 3.33175 9.09882 3.28839 9.13277 3.28811L9.39504 3.28608L9.478 3.03725C9.48894 3.00503 9.53449 3.00503 9.54523 3.03725Z" fill="#F5F5F5"/>
<path d="M9.54523 5.33934L9.6282 5.58817L9.89046 5.5902C9.92441 5.59047 9.93851 5.63379 9.91121 5.65399L9.70019 5.80981L9.77929 6.05989C9.78953 6.09227 9.75265 6.11903 9.72504 6.0993L9.51164 5.9468L9.29824 6.0993C9.27062 6.11903 9.23375 6.09227 9.24398 6.05989L9.32308 5.80981L9.11207 5.65399C9.08476 5.63383 9.09882 5.59047 9.13277 5.5902L9.39504 5.58817L9.478 5.33934C9.48894 5.30711 9.53449 5.30711 9.54523 5.33934Z" fill="#F5F5F5"/>
<path d="M9.54523 7.45441L9.6282 7.70324L9.89046 7.70527C9.92441 7.70555 9.93851 7.74887 9.91121 7.76906L9.70019 7.92488L9.77929 8.17496C9.78953 8.20734 9.75265 8.2341 9.72504 8.21438L9.51164 8.06184L9.29824 8.21438C9.27062 8.2341 9.23375 8.20734 9.24398 8.17496L9.32308 7.92488L9.11207 7.76906C9.08476 7.74891 9.09882 7.70555 9.13277 7.70527L9.39504 7.70324L9.478 7.45441C9.48894 7.42219 9.53449 7.42219 9.54523 7.45441Z" fill="#F5F5F5"/>
<path d="M9.54523 9.37922L9.6282 9.62805L9.89046 9.63008C9.92441 9.63035 9.93851 9.67367 9.91121 9.69386L9.70019 9.84968L9.77929 10.0998C9.78953 10.1321 9.75265 10.1589 9.72504 10.1392L9.51164 9.98668L9.29824 10.1392C9.27062 10.1589 9.23375 10.1321 9.24398 10.0998L9.32308 9.84968L9.11207 9.69386C9.08476 9.67371 9.09882 9.63035 9.13277 9.63008L9.39504 9.62805L9.478 9.37922C9.48894 9.34699 9.53449 9.34699 9.54523 9.37922Z" fill="#F5F5F5"/>
</svg>
